<svg width="177" height="31" viewBox="0 0 177 31" fill="none" xmlns="http://www.w3.org/2000/svg">
<path d="M13.9153 19V4.45455H23.546V6.99006H16.9906V10.456H22.9068V12.9915H16.9906V19H13.9153ZM26.3052 19H23.0098L28.0311 4.45455H31.9941L37.0084 19H33.7129L30.0694 7.77841H29.9558L26.3052 19ZM26.0993 13.2827H33.8834V15.6832H26.0993V13.2827ZM46.3177 8.63778C46.2608 8.06487 46.017 7.61979 45.5861 7.30256C45.1553 6.98532 44.5705 6.8267 43.8319 6.8267C43.33 6.8267 42.9062 6.89773 42.5606 7.03977C42.2149 7.17708 41.9498 7.36884 41.7651 7.61506C41.5852 7.86127 41.4952 8.14062 41.4952 8.45312C41.4857 8.71354 41.5402 8.94081 41.6586 9.13494C41.7817 9.32907 41.9498 9.49716 42.1628 9.6392C42.3759 9.77651 42.6221 9.89725 42.9015 10.0014C43.1808 10.1009 43.4791 10.1861 43.7963 10.2571L45.1032 10.5696C45.7376 10.7116 46.32 10.901 46.8503 11.1378C47.3806 11.3745 47.8399 11.6657 48.2282 12.0114C48.6164 12.357 48.9171 12.7642 49.1302 13.233C49.348 13.7017 49.4592 14.2391 49.464 14.8452C49.4592 15.7353 49.232 16.5071 48.7821 17.1605C48.3371 17.8092 47.6931 18.3134 46.8503 18.6733C46.0123 19.0284 45.0014 19.206 43.8177 19.206C42.6434 19.206 41.6207 19.026 40.7495 18.6662C39.883 18.3063 39.2059 17.7737 38.7182 17.0682C38.2353 16.358 37.982 15.4796 37.9583 14.4332H40.9341C40.9673 14.9209 41.107 15.3281 41.3532 15.6548C41.6041 15.9768 41.9379 16.2206 42.3546 16.3864C42.776 16.5473 43.2518 16.6278 43.7821 16.6278C44.303 16.6278 44.7552 16.5521 45.1387 16.4006C45.5269 16.2491 45.8276 16.0384 46.0407 15.7685C46.2537 15.4986 46.3603 15.1884 46.3603 14.8381C46.3603 14.5114 46.2632 14.2367 46.0691 14.0142C45.8797 13.7917 45.6003 13.6023 45.231 13.446C44.8664 13.2898 44.419 13.1477 43.8887 13.0199L42.3049 12.6222C41.0785 12.3239 40.1103 11.8575 39.4 11.223C38.6898 10.5885 38.3371 9.7339 38.3418 8.65909C38.3371 7.77841 38.5714 7.009 39.0449 6.35085C39.5231 5.69271 40.1789 5.17898 41.0123 4.80966C41.8456 4.44034 42.7926 4.25568 43.8532 4.25568C44.9327 4.25568 45.8749 4.44034 46.6799 4.80966C47.4895 5.17898 48.1193 5.69271 48.5691 6.35085C49.0189 7.009 49.2509 7.77131 49.2651 8.63778H46.3177ZM51.5325 19V4.45455H54.6078V10.456H60.8507V4.45455H63.9189V19H60.8507V12.9915H54.6078V19H51.5325ZM69.5297 4.45455V19H66.4544V4.45455H69.5297ZM85.4263 11.7273C85.4263 13.3134 85.1257 14.6629 84.5243 15.7756C83.9277 16.8883 83.1133 17.7382 82.0812 18.3253C81.0537 18.9077 79.8984 19.1989 78.6152 19.1989C77.3226 19.1989 76.1626 18.9053 75.1351 18.3182C74.1077 17.7311 73.2956 16.8812 72.699 15.7685C72.1025 14.6558 71.8042 13.3087 71.8042 11.7273C71.8042 10.1411 72.1025 8.79167 72.699 7.67898C73.2956 6.56629 74.1077 5.71875 75.1351 5.13636C76.1626 4.54924 77.3226 4.25568 78.6152 4.25568C79.8984 4.25568 81.0537 4.54924 82.0812 5.13636C83.1133 5.71875 83.9277 6.56629 84.5243 7.67898C85.1257 8.79167 85.4263 10.1411 85.4263 11.7273ZM82.3084 11.7273C82.3084 10.6998 82.1545 9.83333 81.8468 9.12784C81.5437 8.42235 81.1152 7.88731 80.5613 7.52273C80.0073 7.15814 79.3586 6.97585 78.6152 6.97585C77.8719 6.97585 77.2232 7.15814 76.6692 7.52273C76.1152 7.88731 75.6844 8.42235 75.3766 9.12784C75.0736 9.83333 74.9221 10.6998 74.9221 11.7273C74.9221 12.7547 75.0736 13.6212 75.3766 14.3267C75.6844 15.0322 76.1152 15.5672 76.6692 15.9318C77.2232 16.2964 77.8719 16.4787 78.6152 16.4787C79.3586 16.4787 80.0073 16.2964 80.5613 15.9318C81.1152 15.5672 81.5437 15.0322 81.8468 14.3267C82.1545 13.6212 82.3084 12.7547 82.3084 11.7273ZM99.8706 4.45455V19H97.2143L90.8862 9.84517H90.7797V19H87.7044V4.45455H90.4032L96.6816 13.6023H96.8095V4.45455H99.8706ZM102.411 19V4.45455H105.487V10.456H111.73V4.45455H114.798V19H111.73V12.9915H105.487V19H102.411ZM130.7 11.7273C130.7 13.3134 130.399 14.6629 129.798 15.7756C129.201 16.8883 128.387 17.7382 127.355 18.3253C126.327 18.9077 125.172 19.1989 123.889 19.1989C122.596 19.1989 121.436 18.9053 120.409 18.3182C119.381 17.7311 118.569 16.8812 117.972 15.7685C117.376 14.6558 117.078 13.3087 117.078 11.7273C117.078 10.1411 117.376 8.79167 117.972 7.67898C118.569 6.56629 119.381 5.71875 120.409 5.13636C121.436 4.54924 122.596 4.25568 123.889 4.25568C125.172 4.25568 126.327 4.54924 127.355 5.13636C128.387 5.71875 129.201 6.56629 129.798 7.67898C130.399 8.79167 130.7 10.1411 130.7 11.7273ZM127.582 11.7273C127.582 10.6998 127.428 9.83333 127.12 9.12784C126.817 8.42235 126.389 7.88731 125.835 7.52273C125.281 7.15814 124.632 6.97585 123.889 6.97585C123.145 6.97585 122.497 7.15814 121.943 7.52273C121.389 7.88731 120.958 8.42235 120.65 9.12784C120.347 9.83333 120.195 10.6998 120.195 11.7273C120.195 12.7547 120.347 13.6212 120.65 14.3267C120.958 15.0322 121.389 15.5672 121.943 15.9318C122.497 16.2964 123.145 16.4787 123.889 16.4787C124.632 16.4787 125.281 16.2964 125.835 15.9318C126.389 15.5672 126.817 15.0322 127.12 14.3267C127.428 13.6212 127.582 12.7547 127.582 11.7273ZM132.978 19V4.45455H136.053V16.4645H142.289V19H132.978ZM147.401 4.45455V19H144.325V4.45455H147.401ZM162.765 9.54688H159.654C159.597 9.14441 159.481 8.78693 159.306 8.47443C159.131 8.1572 158.906 7.88731 158.631 7.66477C158.357 7.44223 158.039 7.27178 157.68 7.15341C157.324 7.03504 156.939 6.97585 156.522 6.97585C155.769 6.97585 155.113 7.16288 154.555 7.53693C153.996 7.90625 153.563 8.44602 153.255 9.15625C152.947 9.86174 152.793 10.7187 152.793 11.7273C152.793 12.7642 152.947 13.6354 153.255 14.3409C153.567 15.0464 154.003 15.5791 154.562 15.9389C155.12 16.2988 155.767 16.4787 156.501 16.4787C156.912 16.4787 157.294 16.4242 157.644 16.3153C157.999 16.2064 158.314 16.0478 158.589 15.8395C158.863 15.6264 159.091 15.3684 159.27 15.0653C159.455 14.7623 159.583 14.4167 159.654 14.0284L162.765 14.0426C162.684 14.7102 162.483 15.3542 162.161 15.9744C161.844 16.59 161.415 17.1416 160.876 17.6293C160.341 18.1122 159.701 18.4957 158.958 18.7798C158.219 19.0592 157.384 19.1989 156.451 19.1989C155.153 19.1989 153.993 18.9053 152.971 18.3182C151.953 17.7311 151.148 16.8812 150.556 15.7685C149.969 14.6558 149.675 13.3087 149.675 11.7273C149.675 10.1411 149.974 8.79167 150.57 7.67898C151.167 6.56629 151.976 5.71875 152.999 5.13636C154.022 4.54924 155.172 4.25568 156.451 4.25568C157.294 4.25568 158.075 4.37405 158.795 4.6108C159.519 4.84754 160.161 5.19318 160.719 5.64773C161.278 6.09754 161.733 6.64915 162.083 7.30256C162.438 7.95597 162.665 8.70407 162.765 9.54688Z" fill="#97404C"/>
</svg>
