<svg width="41" height="41" viewBox="0 0 41 41" fill="none" xmlns="http://www.w3.org/2000/svg">
<path fill-rule="evenodd" clip-rule="evenodd" d="M19.8887 18.4226C21.4587 18.4226 22.7314 17.1498 22.7314 15.5798C22.7314 14.0098 21.4587 12.7371 19.8887 12.7371C18.3186 12.7371 17.0459 14.0098 17.0459 15.5798C17.0459 17.1498 18.3186 18.4226 19.8887 18.4226ZM19.8887 21.2653C23.0287 21.2653 25.5742 18.7198 25.5742 15.5798C25.5742 12.4398 23.0287 9.89429 19.8887 9.89429C16.7486 9.89429 14.2031 12.4398 14.2031 15.5798C14.2031 18.7198 16.7486 21.2653 19.8887 21.2653Z" fill="#000D39"/>
<circle cx="20.076" cy="20.076" r="19.576" stroke="black"/>
<path fill-rule="evenodd" clip-rule="evenodd" d="M19.889 21.9942C15.7022 21.9942 12.3082 25.3883 12.3082 29.575H9.27588C9.27588 23.7136 14.0275 18.9619 19.889 18.9619C25.7505 18.9619 30.5021 23.7136 30.5021 29.575H27.4698C27.4698 25.3883 24.0757 21.9942 19.889 21.9942Z" fill="#000D39"/>
</svg>
